<?xml version="1.0" standalone="no"?>
<!DOCTYPE svg PUBLIC "-//W3C//DTD SVG 20010904//EN"
 "http://www.w3.org/TR/2001/REC-SVG-20010904/DTD/svg10.dtd">
<svg version="1.0" xmlns="http://www.w3.org/2000/svg"
 width="1850.000000pt" height="352.000000pt" viewBox="0 0 1850.000000 352.000000"
 preserveAspectRatio="xMidYMid meet">
<metadata>
Created by potrace 1.10, written by Peter Selinger 2001-2011
</metadata>
<g transform="translate(0.000000,252.000000) scale(0.100000,-0.100000)"
fill="#ffffff" stroke="none">
<path d="M202 1918 c-14 -14 -17 -1254 -4 -1276 6 -9 38 -12 123 -10 l114 3 3
438 c1 300 6 437 13 437 19 0 23 -6 132 -185 7 -10 23 -37 37 -60 13 -22 29
-48 35 -57 12 -21 184 -299 205 -333 8 -13 41 -66 73 -117 87 -141 66 -128
210 -128 105 0 126 3 131 16 3 9 6 296 6 638 0 470 -3 625 -12 634 -8 8 -48
12 -113 12 -65 0 -105 -4 -113 -12 -9 -9 -12 -114 -12 -410 0 -393 0 -398 -20
-398 -11 0 -24 8 -27 18 -4 9 -20 36 -35 58 -15 23 -28 45 -28 48 0 3 -20 35
-45 72 -25 36 -45 67 -45 70 0 2 -20 35 -44 72 -24 37 -96 153 -161 257 -64
105 -126 198 -137 208 -17 14 -41 17 -147 17 -85 0 -131 -4 -139 -12z"/>
<path d="M1622 1918 c-9 -9 -12 -164 -12 -634 0 -342 3 -629 6 -638 5 -13 26
-16 124 -16 66 0 121 4 124 9 3 5 6 293 6 642 0 503 -2 634 -12 641 -21 13
-222 10 -236 -4z"/>
<path d="M2067 1915 c-4 -8 40 -94 98 -196 58 -100 105 -183 105 -185 0 -1 20
-37 45 -78 25 -42 45 -78 45 -80 0 -2 28 -51 63 -108 l62 -103 5 -257 c3 -165
9 -261 16 -268 7 -7 53 -10 125 -8 l114 3 5 255 5 255 64 110 c35 61 72 124
82 140 11 17 22 37 26 45 4 8 26 48 50 88 24 41 43 75 43 77 0 3 77 138 100
175 35 57 70 132 65 140 -4 6 -59 10 -124 10 -100 0 -120 -3 -133 -17 -14 -16
-60 -93 -118 -198 -12 -22 -39 -69 -60 -105 -21 -36 -51 -90 -68 -120 -36 -65
-63 -75 -84 -33 -20 41 -197 343 -219 375 -11 15 -19 31 -19 36 0 5 -11 21
-25 36 -23 25 -27 26 -143 26 -96 0 -121 -3 -125 -15z"/>
<path d="M3677 1918 c-9 -7 -27 -47 -41 -88 -30 -91 -88 -256 -196 -570 -45
-129 -99 -287 -121 -350 -21 -63 -48 -140 -60 -170 -12 -30 -22 -66 -23 -80
l-1 -25 121 -3 c89 -2 124 1 131 10 11 15 32 73 63 178 34 114 23 110 286 110
211 0 225 -1 244 -20 11 -11 20 -28 20 -39 0 -10 7 -32 15 -47 8 -16 15 -36
15 -44 1 -24 35 -117 49 -134 18 -22 249 -24 257 -2 3 7 -9 54 -26 102 -17 49
-35 103 -40 119 -5 17 -25 75 -45 130 -20 55 -40 114 -45 130 -5 17 -25 75
-45 130 -19 55 -53 152 -75 215 -111 328 -151 436 -167 448 -12 8 -61 12 -158
12 -98 0 -146 -4 -158 -12z m223 -440 c29 -90 63 -196 77 -235 13 -40 21 -77
18 -83 -4 -6 -70 -10 -166 -10 -145 0 -159 2 -159 18 0 19 94 320 116 370 8
18 14 40 14 48 0 24 19 54 34 54 8 0 33 -60 66 -162z"/>
<path d="M4518 1916 c-15 -14 -15 -183 0 -198 4 -4 86 -9 182 -10 l175 -3 5
-535 5 -535 119 -3 c89 -2 121 1 128 10 4 7 8 245 8 529 0 416 3 519 13 528 8
6 79 12 183 13 l169 3 3 94 c2 60 -1 98 -9 107 -17 20 -961 21 -981 0z"/>
<path d="M5720 1911 c-11 -21 -15 -1218 -4 -1258 6 -22 10 -23 124 -23 98 0
119 3 124 16 3 9 6 296 6 638 0 470 -3 625 -12 634 -8 8 -49 12 -120 12 -96 0
-108 -2 -118 -19z"/>
<path d="M6747 1923 c-4 -3 -7 -296 -7 -650 l0 -643 110 0 c98 0 110 2 120 19
6 13 10 163 10 420 0 226 4 402 9 405 5 3 21 -29 35 -72 14 -42 48 -142 76
-222 85 -242 130 -371 157 -450 14 -41 30 -81 35 -87 14 -18 202 -18 215 0 6
6 25 53 42 102 17 50 36 104 42 120 114 326 165 474 186 538 19 57 29 75 37
67 8 -8 12 -134 13 -408 1 -218 4 -405 7 -415 4 -16 16 -17 118 -15 l113 3 3
634 c1 460 -1 638 -9 647 -9 11 -46 14 -153 14 -77 0 -147 -4 -154 -8 -10 -7
-86 -206 -112 -297 -5 -16 -38 -115 -75 -220 -36 -104 -70 -203 -75 -220 -5
-16 -20 -64 -35 -105 -14 -41 -28 -81 -31 -89 -11 -33 -46 36 -84 164 -5 17
-25 75 -45 130 -20 55 -40 114 -45 130 -5 17 -39 116 -75 220 -37 105 -71 203
-75 219 -5 16 -16 39 -25 52 -15 24 -18 24 -169 24 -84 0 -156 -3 -159 -7z"/>
<path d="M8421 1917 c-8 -11 -10 -180 -9 -648 l3 -634 123 -3 122 -3 -2 648
-3 648 -111 3 c-85 2 -114 -1 -123 -11z"/>
<path d="M8882 1918 c-13 -13 -17 -163 -6 -192 5 -14 30 -16 169 -16 90 0 170
-3 179 -6 14 -5 16 -61 16 -523 0 -401 3 -521 13 -534 11 -15 28 -17 127 -15
l115 3 3 524 c1 367 6 528 13 538 9 10 51 13 178 13 117 0 171 4 179 12 7 7
12 44 12 98 0 54 -5 91 -12 98 -17 17 -969 17 -986 0z"/>
<path d="M9954 1917 c-3 -8 -3 -56 -2 -108 l3 -94 171 -3 c127 -2 175 -6 183
-16 7 -9 12 -176 13 -537 l3 -524 119 -3 c89 -2 121 1 128 10 4 7 8 248 8 534
0 467 2 523 16 528 9 3 89 6 179 6 139 0 164 2 169 16 11 29 7 179 -6 192 -18
18 -977 17 -984 -1z"/>
<path d="M11451 1916 c-6 -8 -25 -54 -41 -102 -16 -49 -46 -134 -65 -189 -20
-55 -40 -113 -45 -130 -5 -16 -32 -95 -60 -175 -28 -80 -62 -179 -75 -220 -14
-41 -29 -84 -34 -95 -5 -11 -12 -29 -15 -40 -6 -26 -64 -194 -75 -220 -20 -47
-32 -96 -26 -105 4 -6 56 -10 125 -10 l119 0 14 28 c8 15 31 79 52 144 30 93
41 117 59 122 36 10 433 7 460 -4 14 -5 26 -16 26 -24 0 -9 6 -30 14 -48 8
-18 24 -64 36 -103 36 -119 30 -115 175 -115 101 0 125 3 125 14 0 8 -14 54
-31 103 -17 48 -50 147 -75 218 -24 72 -67 195 -94 275 -28 80 -62 177 -75
215 -13 39 -47 135 -75 215 -28 80 -55 160 -60 178 -4 18 -15 44 -24 57 -16
25 -18 25 -170 25 -119 0 -156 -3 -165 -14z m186 -314 c8 -20 25 -71 37 -112
13 -41 28 -86 34 -100 5 -14 24 -69 42 -124 27 -81 30 -100 19 -110 -10 -7
-63 -10 -166 -8 -148 3 -153 4 -153 24 0 18 64 225 105 338 7 19 18 53 25 75
14 43 30 69 38 60 3 -3 12 -22 19 -43z"/>
<path d="M12431 1916 c-8 -9 -10 -187 -9 -647 l3 -634 409 -3 c321 -2 411 0
418 10 14 22 10 184 -5 197 -9 7 -106 12 -288 13 l-274 3 -3 524 c-1 367 -6
528 -13 538 -16 19 -222 19 -238 -1z"/>
</g>
</svg>
